<?xml version="1.0" encoding="UTF-8"?>
<svg width="40px" height="40px" viewBox="0 0 40 40" version="1.1" xmlns="http://www.w3.org/2000/svg">
    <title>敖丙头像</title>
    <g id="aoping-head" stroke="none" stroke-width="1" fill="none" fill-rule="evenodd">
        <!-- 脸部轮廓 -->
        <circle id="face" fill="#E0F7FA" cx="20" cy="20" r="18"></circle>
        
        <!-- 头发 - 敖丙的蓝色头发 -->
        <path d="M8,18 C6,14 6,8 10,5 C14,2 18,2 20,2 C22,2 26,2 30,5 C34,8 34,14 32,18" id="hair-back" fill="#0288D1"></path>
        
        <!-- 两侧的头发 -->
        <path d="M8,18 C7,20 7,22 8,24" id="hair-left" stroke="#0288D1" stroke-width="2" fill="#0288D1"></path>
        <path d="M32,18 C33,20 33,22 32,24" id="hair-right" stroke="#0288D1" stroke-width="2" fill="#0288D1"></path>
        
        <!-- 眼睛 -->
        <ellipse id="left-eye" fill="#000000" cx="13" cy="16" rx="2.5" ry="3"></ellipse>
        <ellipse id="right-eye" fill="#000000" cx="27" cy="16" rx="2.5" ry="3"></ellipse>
        
        <!-- 眉毛 -->
        <path d="M10,12 C12,10 16,11 16,12" id="left-eyebrow" stroke="#000000" stroke-width="1.5" stroke-linecap="round"></path>
        <path d="M24,12 C26,10 30,11 30,12" id="right-eyebrow" stroke="#000000" stroke-width="1.5" stroke-linecap="round"></path>
        
        <!-- 嘴巴 -->
        <path d="M16,25 C18,27 22,27 24,25" id="mouth" stroke="#01579B" stroke-width="1.5" stroke-linecap="round"></path>
        
        <!-- 龙角 - 敖丙特有的龙角 -->
        <path d="M12,5 C10,2 8,0 6,-2" id="left-horn" stroke="#01579B" stroke-width="2" fill="#0288D1"></path>
        <path d="M28,5 C30,2 32,0 34,-2" id="right-horn" stroke="#01579B" stroke-width="2" fill="#0288D1"></path>
        
        <!-- 发髻 -->
        <path d="M15,5 C17,0 23,0 25,5" id="hair-bun" stroke="#01579B" stroke-width="2" fill="#0288D1"></path>
        <path d="M17,3 C19,1 21,1 23,3" id="hair-bun-detail" stroke="#01579B" stroke-width="1" fill="#0288D1"></path>
        
        <!-- 发带 -->
        <path d="M14,6 C16,8 24,8 26,6" id="hair-band" stroke="#B3E5FC" stroke-width="1.5" fill="#B3E5FC"></path>
        
        <!-- 冰晶装饰 -->
        <path d="M18,2 L20,0 L22,2 L20,1 Z" id="ice1" fill="#B3E5FC"></path>
        <path d="M16,3 L14,1 L16,0 L15,2 Z" id="ice2" fill="#B3E5FC"></path>
        <path d="M24,3 L26,1 L24,0 L25,2 Z" id="ice3" fill="#B3E5FC"></path>
    </g>
</svg> 